<?xml version="1.0" standalone="no"?>
<!DOCTYPE svg PUBLIC "-//W3C//DTD SVG 20010904//EN"
 "http://www.w3.org/TR/2001/REC-SVG-20010904/DTD/svg10.dtd">
<svg version="1.0" xmlns="http://www.w3.org/2000/svg"
 width="256.000000pt" height="256.000000pt" viewBox="0 0 256.000000 256.000000"
 preserveAspectRatio="xMidYMid meet">
<metadata>
Created by potrace 1.10, written by Peter Selinger 2001-2011
</metadata>
<g transform="translate(0.000000,256.000000) scale(0.100000,-0.100000)"
fill="#000000" stroke="none">
<path d="M1026 2314 c-137 -27 -292 -122 -378 -231 -39 -51 -68 -95 -68 -105
0 -2 20 -2 45 0 30 3 45 9 45 18 0 16 -16 19 -25 4 -3 -5 -13 -10 -21 -10 -37
0 109 160 196 215 118 75 310 111 452 86 78 -13 191 -58 250 -99 55 -38 146
-129 164 -164 l15 -28 -143 -1 c-79 -1 -148 -1 -155 0 -6 1 -14 -3 -18 -8 -3
-7 61 -11 180 -13 102 -2 185 -1 185 1 0 19 -75 112 -135 170 -156 148 -372
209 -589 165z"/>
<path d="M1011 2172 c-14 -69 -14 -93 -2 -73 7 11 35 13 149 9 77 -4 150 -11
163 -18 24 -11 24 -11 -1 10 -37 31 -188 102 -246 116 l-52 12 -11 -56z m93 2
c24 -9 19 -30 -6 -29 -29 0 -50 13 -43 26 7 10 26 12 49 3z"/>
<path d="M888 2195 c-49 -18 -175 -104 -218 -150 -28 -30 -30 -34 -10 -22 25
15 180 59 253 72 26 4 44 2 55 -7 13 -11 15 -11 10 2 -30 77 -42 106 -47 111
-3 4 -23 1 -43 -6z m26 -44 c8 -12 -14 -27 -46 -33 -34 -6 -36 4 -5 25 25 18
43 21 51 8z"/>
<path d="M1125 2090 c3 -5 14 -10 23 -10 9 0 32 -23 49 -50 27 -41 46 -56 105
-84 l73 -35 -57 5 c-40 4 -58 3 -58 -5 0 -12 86 -16 114 -5 14 5 14 9 1 34
-25 48 -134 139 -174 145 -20 4 -47 8 -59 11 -15 3 -21 1 -17 -6z"/>
<path d="M1036 2049 c36 -39 118 -156 199 -284 l57 -90 -6 47 c-14 97 -103
323 -134 342 -4 2 -38 7 -77 11 l-70 7 31 -33z m111 -41 c25 -28 47 -89 30
-82 -14 6 -67 80 -67 94 0 17 15 11 37 -12z"/>
<path d="M801 2050 c-44 -14 -63 -27 -98 -71 -46 -56 -66 -89 -77 -126 -6 -19
5 -14 68 29 65 45 78 59 98 105 12 29 24 53 28 53 3 0 15 7 26 15 23 17 23 17
-45 -5z"/>
<path d="M885 2047 c-56 -21 -60 -25 -78 -72 -24 -65 -47 -202 -47 -285 l0
-65 44 105 c60 146 135 302 153 323 22 23 5 22 -72 -6z m-5 -59 c0 -14 -48
-98 -57 -98 -11 0 9 75 24 93 18 20 33 22 33 5z"/>
<path d="M995 1975 c3 -27 8 -88 11 -135 4 -64 20 -130 61 -265 l55 -180 80
-58 c49 -36 78 -51 73 -40 -4 10 -14 38 -21 62 -8 24 -44 113 -80 199 -37 85
-90 219 -119 296 -29 78 -55 148 -59 156 -3 8 -4 -7 -1 -35z m124 -378 c12
-24 21 -50 21 -58 0 -8 7 -24 15 -35 13 -20 46 -106 42 -110 -11 -12 -67 66
-67 93 0 10 -7 31 -15 47 -13 24 -27 106 -19 106 1 0 12 -19 23 -43z"/>
<path d="M553 1929 l-12 -30 42 3 c32 2 41 7 39 19 -1 9 8 21 20 27 20 9 16
11 -27 11 -47 1 -51 -1 -62 -30z"/>
<path d="M938 1948 c17 -17 15 -28 -7 -28 -11 0 -23 -4 -26 -10 -4 -6 10 -10
34 -10 39 0 56 13 29 23 -10 3 -10 7 1 20 12 15 10 17 -15 17 -22 0 -25 -3
-16 -12z"/>
<path d="M1388 1948 c7 -7 12 -20 12 -30 0 -17 14 -18 195 -18 l196 0 -16 30
-16 30 -191 0 c-149 0 -189 -3 -180 -12z"/>
<path d="M1055 1910 c3 -5 20 -10 36 -10 18 0 28 4 24 10 -3 6 -20 10 -36 10
-18 0 -28 -4 -24 -10z"/>
<path d="M526 1864 c-11 -29 -6 -34 39 -34 25 0 45 4 45 9 0 5 3 16 6 25 5 13
-2 16 -39 16 -32 0 -47 -5 -51 -16z"/>
<path d="M712 1865 c-7 -8 -23 -15 -35 -16 l-22 0 23 -9 c34 -14 78 -2 78 21
0 22 -25 25 -44 4z"/>
<path d="M883 1861 c-11 -17 -9 -20 17 -26 46 -10 89 3 87 26 -2 28 -87 28
-104 0z"/>
<path d="M1072 1861 c12 -20 52 -33 74 -24 10 4 10 9 1 24 -8 13 -23 19 -49
19 -35 0 -37 -2 -26 -19z"/>
<path d="M1267 1861 c7 -26 41 -31 232 -31 230 0 301 8 301 31 0 18 -14 19
-269 19 -259 0 -269 -1 -264 -19z"/>
<path d="M1690 1794 c-63 -14 -120 -32 -126 -40 -6 -8 -17 -49 -23 -92 -12
-76 -14 -78 -77 -143 l-65 -66 -6 -127 -6 -127 33 -34 33 -34 38 20 c22 11 39
21 39 24 0 2 9 55 19 117 l19 114 82 80 c45 43 85 80 88 82 4 1 31 -39 60 -89
l52 -91 0 -182 c0 -176 1 -183 23 -203 l22 -21 133 37 134 36 -1 259 c-2 232
-4 261 -19 272 -86 66 -324 234 -330 233 -4 0 -59 -12 -122 -25z m236 -97 c55
-40 118 -86 141 -102 24 -17 45 -37 47 -45 4 -12 10 -406 7 -448 -1 -13 -32
-28 -91 -44 -162 -43 -151 -56 -148 165 3 179 3 183 -22 227 -76 135 -102 160
-144 138 -34 -18 -161 -139 -176 -169 -8 -13 -19 -64 -27 -113 -18 -121 -53
-157 -83 -85 -10 23 -10 52 -2 126 l11 97 61 61 c59 59 62 65 73 133 7 40 19
79 28 87 16 16 129 42 190 44 30 1 53 -11 135 -72z"/>
<path d="M508 1785 c-3 -13 -4 -26 -2 -27 1 -2 57 -2 124 0 106 3 120 5 104
17 -18 13 -18 14 6 24 19 7 -6 10 -101 10 l-127 1 -4 -25z"/>
<path d="M858 1803 c19 -7 14 -23 -10 -33 -17 -6 3 -9 66 -9 78 -1 87 1 71 13
-18 13 -18 13 1 24 15 9 2 11 -61 11 -44 0 -74 -3 -67 -6z"/>
<path d="M1105 1797 c10 -8 15 -19 11 -25 -5 -9 9 -12 51 -11 51 0 55 2 30 11
-22 8 -26 13 -16 24 10 12 3 14 -42 14 -47 0 -51 -2 -34 -13z"/>
<path d="M1299 1796 c23 -13 23 -14 5 -24 -15 -9 9 -11 101 -12 77 0 125 4
132 11 6 6 35 17 65 24 49 12 39 13 -137 14 -163 0 -187 -2 -166 -13z"/>
<path d="M500 1684 c0 -33 2 -36 23 -30 12 3 69 6 127 6 100 0 103 1 81 17
-23 15 -23 17 -6 30 16 11 1 13 -103 13 l-122 0 0 -36z"/>
<path d="M824 1709 c17 -10 16 -12 -10 -30 l-29 -19 120 0 c114 0 118 1 96 17
-23 15 -23 17 -6 30 16 11 4 13 -86 13 -79 -1 -100 -3 -85 -11z"/>
<path d="M1130 1710 c8 -5 24 -10 34 -10 18 0 18 -1 1 -20 -17 -19 -16 -19 56
-22 41 -2 124 -2 185 0 l112 3 4 30 5 29 -114 0 -113 0 0 -25 c0 -25 -14 -33
-25 -15 -3 5 -12 7 -19 4 -19 -7 -32 16 -15 27 9 5 -12 9 -56 9 -49 0 -65 -3
-55 -10z"/>
<path d="M500 1588 c0 -13 4 -27 8 -33 4 -6 103 -8 277 -5 158 3 261 8 248 13
-27 10 -29 22 -5 36 12 7 -65 10 -255 11 l-273 0 0 -22z"/>
<path d="M1173 1604 c3 -3 23 -12 44 -19 26 -10 31 -14 16 -15 -12 0 -25 -4
-28 -10 -4 -6 39 -10 120 -10 112 0 130 2 156 21 16 11 29 25 29 30 0 5 -72 9
-172 9 -94 0 -169 -3 -165 -6z"/>
<path d="M520 1488 c0 -38 3 -38 291 -38 153 0 279 3 279 8 -1 29 -21 31 -293
34 -152 2 -277 0 -277 -4z"/>
<path d="M1273 1493 c-55 -4 -59 -8 -43 -33 7 -12 16 -13 54 -2 25 6 61 18 78
26 l33 14 -35 -1 c-19 0 -59 -2 -87 -4z"/>
<path d="M1318 1438 c-27 -11 -48 -23 -48 -27 0 -3 11 -45 23 -93 13 -49 23
-88 21 -88 -2 0 -43 28 -91 63 -48 35 -94 67 -100 71 -14 8 -267 -78 -671
-226 -285 -104 -414 -159 -420 -176 -8 -24 546 -552 579 -552 20 0 3 64 -68
265 -41 115 -79 206 -98 231 -28 38 -35 42 -89 48 -88 9 -164 8 -146 -3 13 -9
43 -14 137 -26 62 -7 85 -44 148 -230 26 -77 52 -148 57 -158 5 -10 7 -21 4
-24 -8 -8 -187 150 -338 299 -105 102 -128 131 -119 142 6 7 39 24 74 36 34
12 76 28 92 35 86 36 169 68 245 94 47 17 137 49 200 71 265 95 369 130 390
130 12 0 59 -25 104 -55 45 -30 89 -55 98 -55 9 0 19 -9 23 -20 8 -24 91 -108
116 -115 25 -8 81 17 127 60 43 39 86 55 143 55 59 0 70 -15 71 -98 1 -40 -1
-73 -3 -75 -2 -1 -32 -21 -66 -45 l-62 -42 -573 0 -572 0 -38 37 c-34 33 -44
37 -91 38 -53 0 -163 -18 -174 -29 -4 -3 46 -6 109 -6 l115 0 28 -40 28 -40
587 0 587 0 59 45 c32 24 62 45 66 45 4 0 37 -18 73 -40 l65 -40 91 23 c50 12
91 27 91 32 1 6 27 23 60 38 38 18 58 34 58 46 0 34 19 40 68 22 88 -32 171
-73 176 -86 3 -9 -32 -37 -97 -78 -240 -150 -1027 -560 -1044 -543 -9 9 94
162 163 243 11 11 52 64 93 117 65 84 174 186 198 186 5 0 35 -14 67 -31 44
-24 65 -30 89 -25 38 8 173 71 181 85 7 11 -67 -9 -148 -40 l-50 -19 -69 41
-70 40 -75 -58 c-76 -58 -168 -166 -330 -384 -73 -98 -142 -207 -142 -223 0
-5 13 -6 29 -3 119 24 1115 550 1241 655 34 29 35 30 17 50 -34 37 -197 111
-299 136 -28 6 -28 6 -28 -42 l0 -48 -150 -40 -150 -40 -35 36 -35 36 0 96 0
95 -46 7 c-71 9 -101 7 -160 -10 -41 -12 -54 -20 -54 -35 0 -12 -18 -29 -52
-48 l-51 -29 -49 41 -49 42 6 138 c4 75 6 137 4 137 -2 -1 -25 -10 -51 -22z"/>
<path d="M566 1365 c9 -21 387 -22 454 -1 42 14 26 15 -207 15 -220 1 -252 -1
-247 -14z"/>
<path d="M630 1260 c0 -12 64 -12 100 0 19 6 9 8 -37 9 -36 1 -63 -3 -63 -9z"/>
</g>
</svg>
